<?xml version="1.0" encoding="iso-8859-1"?>
<!-- Uploaded to: SVG Repo, www.svgrepo.com, Generator: SVG Repo Mixer Tools -->
<svg height="800px" width="800px" version="1.1" id="Layer_1" xmlns="http://www.w3.org/2000/svg" xmlns:xlink="http://www.w3.org/1999/xlink" 
	 viewBox="0 0 512 512" xml:space="preserve">
<circle style="fill:#273B7A;" cx="256" cy="256" r="256"/>
<path style="fill:#121149;" d="M511.759,266.771L372.305,127.317l-16.294,64.491l-72.428-72.428l-3.375,17.311l-17.311-17.311
	l-3.506,20.314l-20.314-20.314l-3.141,65.267l-65.267-65.267l-16.089,147.251l-8.523,128.6l116.681,116.681
	C397.419,508.433,506.202,400.929,511.759,266.771z"/>
<path style="fill:#E09112;" d="M355.519,399.515L355.519,399.515c-7.777,0-14.024-6.408-13.827-14.183l3.951-156.484h18.963
	l4.739,156.415C369.583,393.064,363.323,399.515,355.519,399.515z"/>
<path style="fill:#FF5419;" d="M369.347,385.264l-4.741-156.415h-8.62v170.643C363.57,399.238,369.578,392.906,369.347,385.264z"/>
<path style="fill:#E09112;" d="M256,399.515L256,399.515c-7.777,0-14.024-6.408-13.827-14.183l3.951-156.484h18.963l4.739,156.415
	C270.062,393.064,263.804,399.515,256,399.515z"/>
<path style="fill:#FF5419;" d="M269.826,385.264l-4.741-156.415H256v170.667C263.804,399.515,270.062,393.064,269.826,385.264z"/>
<path style="fill:#E09112;" d="M156.055,399.515L156.055,399.515c-7.777,0-14.024-6.408-13.827-14.183l3.951-156.484h18.963
	l4.739,156.415C170.117,393.064,163.859,399.515,156.055,399.515z"/>
<path style="fill:#FF5419;" d="M165.142,228.848h-9.128v170.665c0.014,0,0.028,0.002,0.041,0.002
	c7.804,0,14.062-6.451,13.826-14.252L165.142,228.848z"/>
<path style="fill:#FFFFFF;" d="M398.222,190.492c0,23.564-19.103,42.667-42.667,42.667s-42.667-19.103-42.667-42.667
	s19.103-71.111,42.667-71.111S398.222,166.928,398.222,190.492z"/>
<path style="fill:#D0D1D3;" d="M398.222,190.492c0-23.419-18.872-70.506-42.236-71.084v113.74
	C379.351,232.915,398.222,213.911,398.222,190.492z"/>
<path style="fill:#FFFFFF;" d="M272.925,119.38v85.333h-10.03V119.38h-13.791v85.333h-10.03V119.38h-10.657v99.411
	c0,7.933,6.237,14.367,13.931,14.367h27.303c7.694,0,13.931-6.432,13.931-14.367V119.38H272.925z"/>
<path style="fill:#D0D1D3;" d="M272.925,119.38v85.333h-10.03V119.38H256v113.778h13.652c7.694,0,13.931-6.432,13.931-14.365V119.38
	H272.925z"/>
<path style="fill:#FFFFFF;" d="M170.667,119.38c0,0-60.625,28.732-28.444,170.667h28.444V119.38z"/>
<path style="fill:#D0D1D3;" d="M170.667,119.38c0,0-6.809,3.237-14.653,12.869v157.798h14.653V119.38z"/>
</svg>