<svg width="110" height="25" viewBox="0 0 110 25" fill="none" xmlns="http://www.w3.org/2000/svg">
<path d="M30.2784 7.36364H32.4091L36.1136 16.4091H36.25L39.9545 7.36364H42.0852V19H40.4148V10.5795H40.3068L36.875 18.983H35.4886L32.0568 10.5739H31.9489V19H30.2784V7.36364ZM48.2628 19.1761C47.4029 19.1761 46.6624 18.9924 46.0412 18.625C45.4238 18.2538 44.9465 17.733 44.6094 17.0625C44.276 16.3883 44.1094 15.5985 44.1094 14.6932C44.1094 13.7992 44.276 13.0114 44.6094 12.3295C44.9465 11.6477 45.4162 11.1155 46.0185 10.733C46.6245 10.3504 47.3329 10.1591 48.1435 10.1591C48.6359 10.1591 49.1132 10.2405 49.5753 10.4034C50.0374 10.5663 50.4522 10.822 50.8196 11.1705C51.187 11.5189 51.4768 11.9716 51.6889 12.5284C51.901 13.0814 52.0071 13.7538 52.0071 14.5455V15.1477H45.0696V13.875H50.3423C50.3423 13.428 50.2514 13.0322 50.0696 12.6875C49.8878 12.339 49.6321 12.0644 49.3026 11.8636C48.9768 11.6629 48.5942 11.5625 48.1548 11.5625C47.6776 11.5625 47.2609 11.6799 46.9048 11.9148C46.5526 12.1458 46.2798 12.4489 46.0866 12.8239C45.8973 13.1951 45.8026 13.5985 45.8026 14.0341V15.0284C45.8026 15.6117 45.9048 16.108 46.1094 16.517C46.3177 16.9261 46.6075 17.2386 46.9787 17.4545C47.3499 17.6667 47.7836 17.7727 48.2798 17.7727C48.6018 17.7727 48.8954 17.7273 49.1605 17.6364C49.4257 17.5417 49.6548 17.4015 49.848 17.2159C50.0412 17.0303 50.1889 16.8011 50.2912 16.5284L51.8991 16.8182C51.7704 17.2917 51.5393 17.7064 51.206 18.0625C50.8764 18.4148 50.4616 18.6894 49.9616 18.8864C49.4654 19.0795 48.8991 19.1761 48.2628 19.1761ZM55.5909 13.8182V19H53.892V10.2727H55.5227V11.6932H55.6307C55.8314 11.2311 56.1458 10.8598 56.5739 10.5795C57.0057 10.2992 57.5492 10.1591 58.2045 10.1591C58.7992 10.1591 59.3201 10.2841 59.767 10.5341C60.214 10.7803 60.5606 11.1477 60.8068 11.6364C61.053 12.125 61.1761 12.7292 61.1761 13.4489V19H59.4773V13.6534C59.4773 13.0208 59.3125 12.5265 58.983 12.1705C58.6534 11.8106 58.2008 11.6307 57.625 11.6307C57.2311 11.6307 56.8807 11.7159 56.5739 11.8864C56.2708 12.0568 56.0303 12.3068 55.8523 12.6364C55.678 12.9621 55.5909 13.3561 55.5909 13.8182ZM68.983 15.3807V10.2727H70.6875V19H69.017V17.4886H68.9261C68.7254 17.9545 68.4034 18.3428 67.9602 18.6534C67.5208 18.9602 66.9735 19.1136 66.3182 19.1136C65.7576 19.1136 65.2614 18.9905 64.8295 18.7443C64.4015 18.4943 64.0644 18.125 63.8182 17.6364C63.5758 17.1477 63.4545 16.5436 63.4545 15.8239V10.2727H65.1534V15.6193C65.1534 16.214 65.3182 16.6875 65.6477 17.0398C65.9773 17.392 66.4053 17.5682 66.9318 17.5682C67.25 17.5682 67.5663 17.4886 67.8807 17.3295C68.1989 17.1705 68.4621 16.9299 68.6705 16.608C68.8826 16.286 68.9867 15.8769 68.983 15.3807ZM77.3409 7.36364H79.4716L83.1761 16.4091H83.3125L87.017 7.36364H89.1477V19H87.4773V10.5795H87.3693L83.9375 18.983H82.5511L79.1193 10.5739H79.0114V19H77.3409V7.36364ZM94.1037 19.1932C93.5507 19.1932 93.0507 19.0909 92.6037 18.8864C92.1567 18.678 91.8026 18.3769 91.5412 17.983C91.2836 17.589 91.1548 17.1061 91.1548 16.5341C91.1548 16.0417 91.2495 15.6364 91.4389 15.3182C91.6283 15 91.884 14.7481 92.206 14.5625C92.5279 14.3769 92.8878 14.2367 93.2855 14.142C93.6832 14.0473 94.0885 13.9754 94.5014 13.9261C95.0241 13.8655 95.4484 13.8163 95.7741 13.7784C96.0999 13.7367 96.3366 13.6705 96.4844 13.5795C96.6321 13.4886 96.706 13.3409 96.706 13.1364V13.0966C96.706 12.6004 96.5658 12.2159 96.2855 11.9432C96.009 11.6705 95.5961 11.5341 95.0469 11.5341C94.4749 11.5341 94.0241 11.661 93.6946 11.9148C93.3688 12.1648 93.1435 12.4432 93.0185 12.75L91.4219 12.3864C91.6113 11.8561 91.8878 11.428 92.2514 11.1023C92.6188 10.7727 93.0412 10.5341 93.5185 10.3864C93.9957 10.2348 94.4976 10.1591 95.0241 10.1591C95.3726 10.1591 95.742 10.2008 96.1321 10.2841C96.526 10.3636 96.8935 10.5114 97.2344 10.7273C97.5791 10.9432 97.8613 11.2519 98.081 11.6534C98.3007 12.0511 98.4105 12.5682 98.4105 13.2045V19H96.7514V17.8068H96.6832C96.5734 18.0265 96.4086 18.2424 96.1889 18.4545C95.9692 18.6667 95.687 18.8428 95.3423 18.983C94.9976 19.1231 94.5848 19.1932 94.1037 19.1932ZM94.473 17.8295C94.9427 17.8295 95.3442 17.7367 95.6776 17.5511C96.0147 17.3655 96.2704 17.1231 96.4446 16.8239C96.6226 16.5208 96.7116 16.197 96.7116 15.8523V14.7273C96.651 14.7879 96.5336 14.8447 96.3594 14.8977C96.1889 14.947 95.9938 14.9905 95.7741 15.0284C95.5545 15.0625 95.3404 15.0947 95.1321 15.125C94.9238 15.1515 94.7495 15.1742 94.6094 15.1932C94.2798 15.2348 93.9787 15.3049 93.706 15.4034C93.437 15.5019 93.2211 15.6439 93.0582 15.8295C92.8991 16.0114 92.8196 16.2538 92.8196 16.5568C92.8196 16.9773 92.9749 17.2955 93.2855 17.5114C93.5961 17.7235 93.992 17.8295 94.473 17.8295ZM100.673 22.2727V10.2727H102.332V11.6875H102.474C102.573 11.5057 102.715 11.2955 102.901 11.0568C103.086 10.8182 103.344 10.6098 103.673 10.4318C104.003 10.25 104.438 10.1591 104.98 10.1591C105.685 10.1591 106.313 10.3371 106.866 10.6932C107.42 11.0492 107.853 11.5625 108.168 12.233C108.486 12.9034 108.645 13.7102 108.645 14.6534C108.645 15.5966 108.488 16.4053 108.173 17.0795C107.859 17.75 107.427 18.267 106.878 18.6307C106.329 18.9905 105.702 19.1705 104.997 19.1705C104.467 19.1705 104.033 19.0814 103.696 18.9034C103.363 18.7254 103.101 18.517 102.912 18.2784C102.723 18.0398 102.577 17.8277 102.474 17.642H102.372V22.2727H100.673ZM102.338 14.6364C102.338 15.25 102.427 15.7879 102.605 16.25C102.783 16.7121 103.041 17.0739 103.378 17.3352C103.715 17.5928 104.128 17.7216 104.616 17.7216C105.124 17.7216 105.548 17.5871 105.889 17.3182C106.23 17.0455 106.488 16.6761 106.662 16.2102C106.84 15.7443 106.929 15.2197 106.929 14.6364C106.929 14.0606 106.842 13.5436 106.668 13.0852C106.497 12.6269 106.24 12.2652 105.895 12C105.554 11.7348 105.128 11.6023 104.616 11.6023C104.124 11.6023 103.707 11.7292 103.366 11.983C103.029 12.2367 102.774 12.5909 102.599 13.0455C102.425 13.5 102.338 14.0303 102.338 14.6364Z" fill="white"/>
<rect x="0.5" y="0.5" width="24" height="24" rx="3.5" stroke="white"/>
<path d="M3.66051 4.27273H6.27273L8.48864 9.67614H8.59091L10.8068 4.27273H13.419V13H11.3651V7.6392H11.2926L9.19602 12.9446H7.88352L5.78693 7.60938H5.71449V13H3.66051V4.27273Z" fill="white"/>
<path d="M11.6605 12.2727H14.2727L16.4886 17.6761H16.5909L18.8068 12.2727H21.419V21H19.3651V15.6392H19.2926L17.196 20.9446H15.8835L13.7869 15.6094H13.7145V21H11.6605V12.2727Z" fill="white"/>
</svg>
