<svg width="275" height="275" viewBox="0 0 275 275" fill="none" xmlns="http://www.w3.org/2000/svg">
<path d="M272 137.5C272 211.782 211.782 272 137.5 272C63.2177 272 3 211.782 3 137.5C3 63.2177 63.2177 3 137.5 3C211.782 3 272 63.2177 272 137.5Z" fill="url(#paint0_linear_41_146)" stroke="#E4F1FF" stroke-width="6"/>
<path d="M143.284 150.182H164.182L181.909 193.409H182.727L200.455 150.182H221.352V220H204.92V177.114H204.341L187.568 219.557H177.068L160.295 176.875H159.716V220H143.284V150.182Z" fill="#9400FF"/>
<path d="M47.2841 67.1818H68.1818L85.9091 110.409H86.7273L104.455 67.1818H125.352V137H108.92V94.1136H108.341L91.5682 136.557H81.0682L64.2955 93.875H63.7159V137H47.2841V67.1818Z" fill="white"/>
<defs>
<linearGradient id="paint0_linear_41_146" x1="211.5" y1="239" x2="56.5" y2="47.5" gradientUnits="userSpaceOnUse">
<stop offset="0.508544" stop-color="white"/>
<stop offset="0.509044" stop-color="#9400FF"/>
</linearGradient>
</defs>
</svg>
