<svg width="372" height="533" viewBox="0 0 372 533" fill="none" xmlns="http://www.w3.org/2000/svg">
<path d="M186.045 0C83.2931 0 0 83.0262 0 185.561C0 288.096 186.045 533 186.045 533C186.045 533 372 288.096 372 185.561C372 83.0262 288.798 0 186.045 0ZM186.045 308.421C118.029 308.421 62.9245 253.434 62.9245 185.561C62.9245 117.688 118.029 62.7005 186.045 62.7005C254.062 62.7005 309.166 117.688 309.166 185.561C309.166 253.434 254.062 308.421 186.045 308.421Z" fill="#E82327"/>
<g clip-path="url(#clip0_41_44)">
<path d="M185.5 330C261.439 330 323 268.439 323 192.5C323 116.561 261.439 55 185.5 55C109.561 55 48 116.561 48 192.5C48 268.439 109.561 330 185.5 330Z" fill="#FAFF00"/>
<path d="M322.87 198.285L247.968 123.383L239.217 158.022L200.315 119.12L198.502 128.418L189.204 119.12L187.321 130.031L176.41 119.12L174.723 154.176L139.668 119.12L131.026 198.21L126.448 267.282L189.119 329.953C261.457 328.084 319.886 270.343 322.87 198.285Z" fill="#C5C812"/>
<path d="M238.952 269.583C234.775 269.583 231.42 266.141 231.526 261.965L233.648 177.916H243.833L246.379 261.928C246.506 266.118 243.144 269.583 238.952 269.583Z" fill="#E09112"/>
<path d="M246.38 261.929L243.833 177.917H239.203V269.571C243.277 269.435 246.504 266.034 246.38 261.929Z" fill="#FF5419"/>
<path d="M185.5 269.583C181.323 269.583 177.968 266.141 178.073 261.965L180.196 177.916H190.381L192.926 261.928C193.053 266.118 189.692 269.583 185.5 269.583Z" fill="#E09112"/>
<path d="M192.926 261.929L190.38 177.917H185.5V269.584C189.692 269.583 193.053 266.118 192.926 261.929Z" fill="#FF5419"/>
<path d="M131.819 269.583C127.642 269.583 124.286 266.141 124.392 261.965L126.514 177.916H136.699L139.245 261.928C139.372 266.118 136.01 269.583 131.819 269.583Z" fill="#E09112"/>
<path d="M136.699 177.916H131.797V269.582C131.804 269.582 131.812 269.583 131.819 269.583C136.01 269.583 139.371 266.118 139.245 261.928L136.699 177.916Z" fill="#FF5419"/>
<path d="M261.889 157.315C261.889 169.971 251.628 180.232 238.972 180.232C226.316 180.232 216.055 169.971 216.055 157.315C216.055 144.659 226.316 119.121 238.972 119.121C251.628 119.121 261.889 144.659 261.889 157.315Z" fill="white"/>
<path d="M261.889 157.315C261.889 144.736 251.752 119.446 239.203 119.135V180.226C251.753 180.101 261.889 169.894 261.889 157.315Z" fill="#D0D1D3"/>
<path d="M194.59 119.12V164.953H189.203V119.12H181.796V164.953H176.409V119.12H170.685V172.515C170.685 176.776 174.035 180.231 178.167 180.231H192.832C196.964 180.231 200.314 176.777 200.314 172.515V119.12H194.59Z" fill="white"/>
<path d="M194.591 119.12V164.953H189.203V119.12H185.5V180.231H192.833C196.965 180.231 200.315 176.777 200.315 172.516V119.12H194.591Z" fill="#D0D1D3"/>
<path d="M139.667 119.12C139.667 119.12 107.105 134.552 124.389 210.787H139.667V119.12Z" fill="white"/>
<path d="M139.667 119.12C139.667 119.12 136.01 120.859 131.797 126.032V210.787H139.667V119.12Z" fill="#D0D1D3"/>
</g>
<defs>
<clipPath id="clip0_41_44">
<rect width="275" height="275" fill="white" transform="translate(48 55)"/>
</clipPath>
</defs>
</svg>
