<svg width="372" height="533" viewBox="0 0 372 533" fill="none" xmlns="http://www.w3.org/2000/svg">
<path d="M186.045 0C83.2931 0 0 83.0262 0 185.561C0 288.096 186.045 533 186.045 533C186.045 533 372 288.096 372 185.561C372 83.0262 288.798 0 186.045 0ZM186.045 308.421C118.029 308.421 62.9245 253.434 62.9245 185.561C62.9245 117.688 118.029 62.7005 186.045 62.7005C254.062 62.7005 309.167 117.688 309.167 185.561C309.167 253.434 254.062 308.421 186.045 308.421Z" fill="#9400FF"/>
<path d="M320 186.5C320 260.782 259.782 321 185.5 321C111.218 321 51 260.782 51 186.5C51 112.218 111.218 52 185.5 52C259.782 52 320 112.218 320 186.5Z" fill="url(#paint0_linear_52_26)" stroke="#E4F1FF" stroke-width="6"/>
<path d="M191.284 199.182H212.182L229.909 242.409H230.727L248.455 199.182H269.352V269H252.92V226.114H252.341L235.568 268.557H225.068L208.295 225.875H207.716V269H191.284V199.182Z" fill="#9400FF"/>
<path d="M95.2841 116.182H116.182L133.909 159.409H134.727L152.455 116.182H173.352V186H156.92V143.114H156.341L139.568 185.557H129.068L112.295 142.875H111.716V186H95.2841V116.182Z" fill="white"/>
<defs>
<linearGradient id="paint0_linear_52_26" x1="259.5" y1="288" x2="104.5" y2="96.5" gradientUnits="userSpaceOnUse">
<stop offset="0.508544" stop-color="white"/>
<stop offset="0.509044" stop-color="#9400FF"/>
</linearGradient>
</defs>
</svg>
