<svg width="372" height="533" viewBox="0 0 372 533" fill="none" xmlns="http://www.w3.org/2000/svg">
<path d="M185.5 321C261.439 321 323 259.439 323 183.5C323 107.561 261.439 46 185.5 46C109.561 46 48 107.561 48 183.5C48 259.439 109.561 321 185.5 321Z" fill="url(#paint0_linear_41_63)"/>
<path d="M186.045 0C83.2931 0 0 83.0262 0 185.561C0 288.096 186.045 533 186.045 533C186.045 533 372 288.096 372 185.561C372 83.0262 288.798 0 186.045 0ZM186.045 308.421C118.029 308.421 62.9245 253.434 62.9245 185.561C62.9245 117.688 118.029 62.7005 186.045 62.7005C254.062 62.7005 309.166 117.688 309.166 185.561C309.166 253.434 254.062 308.421 186.045 308.421Z" fill="#FF050A"/>
<path d="M95.2841 113.182H116.182L133.909 156.409H134.727L152.455 113.182H173.352V183H156.92V140.114H156.341L139.568 182.557H129.068L112.295 139.875H111.716V183H95.2841V113.182Z" fill="white"/>
<path d="M191.284 196.182H212.182L229.909 239.409H230.727L248.455 196.182H269.352V266H252.92V223.114H252.341L235.568 265.557H225.068L208.295 222.875H207.716V266H191.284V196.182Z" fill="#4AB3FF"/>
<defs>
<linearGradient id="paint0_linear_41_63" x1="259.5" y1="285" x2="104.5" y2="93.5" gradientUnits="userSpaceOnUse">
<stop offset="0.508544" stop-color="white"/>
<stop offset="0.509044" stop-color="#4AB3FF"/>
</linearGradient>
</defs>
</svg>
